<?xml version="1.0" encoding="utf-8"?>
<!-- Generator: Adobe Illustrator 25.0.1, SVG Export Plug-In . SVG Version: 6.00 Build 0)  -->
<svg version="1.1" id="Capa_1" xmlns="http://www.w3.org/2000/svg" xmlns:xlink="http://www.w3.org/1999/xlink" x="0px" y="0px"
	 viewBox="0 0 16 16" style="enable-background:new 0 0 16 16;" xml:space="preserve">
<style type="text/css">
	.st0{fill:#FFFFFF;}
</style>
<path class="st0" d="M9.7,0.9L8,0L6.3,0.9L4.5,1.1L3.6,2.8L2.3,4.1L2.6,6L2.3,7.9l1.3,1.3l0.8,1.7l1.9,0.3L8,12l1.7-0.9l1.9-0.3
	l0.8-1.7l1.3-1.3L13.4,6l0.3-1.9l-1.3-1.3l-0.8-1.7L9.7,0.9z M10.9,2.1l0.7,1.4l1.1,1.1L12.4,6l0.2,1.5l-1.1,1.1l-0.7,1.4l-1.5,0.2
	L8,10.9l-1.4-0.7L5.1,9.9L4.5,8.6L3.4,7.5L3.6,6L3.4,4.5l1.1-1.1l0.7-1.4l1.5-0.2L8,1.1l1.4,0.7C9.4,1.8,10.9,2.1,10.9,2.1z"/>
<path class="st0" d="M4,11.8V16l4-1l4,1v-4.2l-2,0.3l-2,1l-2-1L4,11.8z"/>
</svg>
