<?xml version="1.0" encoding="utf-8"?>
<!-- Generator: Adobe Illustrator 25.0.1, SVG Export Plug-In . SVG Version: 6.00 Build 0)  -->
<svg version="1.1" id="Capa_1" xmlns="http://www.w3.org/2000/svg" xmlns:xlink="http://www.w3.org/1999/xlink" x="0px" y="0px"
	 viewBox="0 0 16 16" style="enable-background:new 0 0 16 16;" xml:space="preserve">
<style type="text/css">
	.st0{fill:#00C9AA;}
</style>
<path class="st0" d="M12,12c0.6,0,1-0.4,1-1V8.6c0-0.6-0.4-1-1-1h-1.4c0-0.4,0-0.7,0.1-1.1c0.1-0.4,0.2-0.7,0.3-1
	c0.1-0.3,0.3-0.5,0.6-0.7c0.2-0.2,0.5-0.3,0.9-0.3V3c-0.6,0-1.1,0.1-1.5,0.4c-0.4,0.2-0.8,0.6-1.1,1C9.5,4.8,9.3,5.3,9.2,5.8
	C9.1,6.4,9,7,9,7.6V11c0,0.6,0.4,1,1,1H12z M6,12c0.6,0,1-0.4,1-1V8.6c0-0.6-0.4-1-1-1H4.6c0-0.4,0-0.7,0.1-1.1
	c0.1-0.4,0.2-0.7,0.3-1C5.1,5.2,5.3,5,5.5,4.8c0.2-0.2,0.5-0.3,0.9-0.3V3C5.8,3,5.3,3.1,4.9,3.4C4.5,3.6,4.1,4,3.8,4.4
	C3.5,4.8,3.3,5.3,3.2,5.8C3.1,6.4,3,7,3,7.6V11c0,0.6,0.4,1,1,1H6z"/>
</svg>
